{"title":"Larry Crowne 2011 CAM Xvid UnKnOwN","uid":6559591,"size":1033504767,"categoryP":"video","categoryS":"movies","magnet":"?xt=urn:btih:f552a4dc2dba000f6d7537f883d6c0316a62acb6&amp;dn=Larry+Crowne+2011+CAM+Xvid+UnKnOwN&amp;tr=udp%3A%2F%2Ftracker.openbittorrent.com%3A80&amp;tr=udp%3A%2F%2Fopen.demonii.com%3A1337&amp;tr=udp%3A%2F%2Ftracker.coppersurfer.tk%3A6969&amp;tr=udp%3A%2F%2Fexodus.desync.com%3A6969","seeders":0,"leechers":1,"uploader":"HeroMaster","files":-1,"time":1311413102,"description":"::::: UnKnOwN Presents :::::\n\n\n:::: Larry Crowne 2011 CAM ::::\n\n\n::Description::\n\n\nEncoded By .......:UnKnOwN\nRuntime ..........:1:34\nIMDb URL .........:http://www.imdb.com/title/tt1583420/\nLanguage .........:English\nFile Size ........:970mb\nRelease Date ......... 2011\nSource ......... Russian/fu\nFile Type ......... Single AVI\nPS3 Compatible ....... Go find out\nGenre ......... Comedy\n\n\n::Video::\n\n\nID: 0\nFormat: MPEG-4 Visual\nFormat profile: Advanced Simple@L5\nFormat settings, BVOP: Yes\nFormat settings, QPel: No\nFormat settings, GMC: No warppoints\nFormat settings, Matrix: Custom\nCodec ID: XVID\nCodec ID/Hint: XviD\nDuration: 1h 49mn\nBit rate: 1 530 Kbps\nWidth: 640pixels\nHeight: 300 pixels\nDisplay aspect ratio: 2.2.1\nFrame rate: 25.000 fps\nColor space: YUV\nChroma subsampling: 4:2:0\nBit depth: 8 bits\nScan type: Progressive\nBits/(Pixel*Frame): 0.234\nStream size: 892 MiB (86%)\nWriting library: XviD 1.2.1 (UTC 2008-12-04)\n\n\n::Audio::\n\n\nID: 1\nFormat: MPEG-Audio\nFormat/Info: Version 1\nMode extension: Layer 3\nCodec ID: 55\nDuration: 1h 34mn\nBit rate mode: Constant\nBit rate: 128 Kbps\nChannel(s): 2 channels\nChannel positions: Front: L R\nSampling rate: 48.0 KHz\nBit depth: 16 bits\nStream size: 302 MiB\nAlignment: Aligned on interleaves\nInterleave, duration: 42 ms (1.00 video frame)\nInterleave, preload duration: 512 ms\n\n\n::SYSPNOSIS::\n\n\nAfter losing his job, a middle-aged man reinvents himself by\ngoing back to college\n\n\n::RELEASE INFO::\n\n\n56 cuts for audio,Colors adjusted denoiser bla bla.Came out nice\nAudio cleaned and muxed back very watchable cam enjoy or not\nSample included.\n\n\n::More Information::\n\n &lt;a href=&quot;\nhttp://leetleech.org/images/29883331518805460810.png&quot; rel=&quot;nofollow&quot; target=&quot;_NEW&quot;&gt;\nhttp://leetleech.org/images/29883331518805460810.png&lt;/a&gt;\n\n\n::Screens::\n\n &lt;a href=&quot;\nhttp://leetleech.org/images/87883543132581579858.png&quot; rel=&quot;nofollow&quot; target=&quot;_NEW&quot;&gt;\nhttp://leetleech.org/images/87883543132581579858.png&lt;/a&gt;\n &lt;a href=&quot;\nhttp://leetleech.org/images/58772709808331200445.png&quot; rel=&quot;nofollow&quot; target=&quot;_NEW&quot;&gt;\nhttp://leetleech.org/images/58772709808331200445.png&lt;/a&gt;\n &lt;a href=&quot;\nhttp://leetleech.org/images/81989764506639723616.png&quot; rel=&quot;nofollow&quot; target=&quot;_NEW&quot;&gt;\nhttp://leetleech.org/images/81989764506639723616.png&lt;/a&gt;\n\n\nENJOY!\n","torrent":{"xt":"urn:btih:f552a4dc2dba000f6d7537f883d6c0316a62acb6","amp;dn":"Larry+Crowne+2011+CAM+Xvid+UnKnOwN","amp;tr":["udp%3A%2F%2Ftracker.openbittorrent.com%3A80","udp%3A%2F%2Fopen.demonii.com%3A1337","udp%3A%2F%2Ftracker.coppersurfer.tk%3A6969","udp%3A%2F%2Fexodus.desync.com%3A6969"],"infoHash":"f552a4dc2dba000f6d7537f883d6c0316a62acb6","infoHashBuffer":{"type":"Buffer","data":[245,82,164,220,45,186,0,15,109,117,55,248,131,214,192,49,106,98,172,182]},"announce":[],"urlList":[]}}